####
#
# OBJ File Generated by Meshlab
#
####
# Object CornellBox2.obj
#
# Vertices: 4
# Faces: 2
#
####
mtllib ./CornellBox2.obj.mtl

vn 0.000000 0.000000 2.000000
v 0.000000 548.799988 559.200012 0.752941 0.752941 0.752941
vn 0.000000 0.000000 1.000000
v 0.000000 0.000000 559.200012 0.752941 0.752941 0.752941
vn 0.000000 0.000000 2.000000
v 556.000000 0.000000 559.200012 0.752941 0.752941 0.752941
vn 0.000000 0.000000 1.000000
v 556.000000 548.799988 559.200012 0.752941 0.752941 0.752941
# 4 vertices, 0 vertices normals


usemtl material_0
f 1//1 2//2 3//3
f 1//1 3//3 4//4
# 2 faces, 0 coords texture

# End of File
